<svg id="Layer_1" data-name="Layer 1" xmlns="http://www.w3.org/2000/svg" viewBox="0 0 87.13 94.71"><defs><style>.cls-1{fill:#00263e;fill-rule:evenodd;}</style></defs><title>noun_Boot_1738556</title><path class="cls-1" d="M38.63,93.57a1.89,1.89,0,0,1-1.89,1.89H10.22a1.89,1.89,0,0,1-1.89-1.89V65.15c0-3.74-.3-14.29-.8-29.49,0-1.41-.1-2.84-.15-4.3C7.17,25.25,7,18.92,6.73,12.75c-.08-2.17-.15-4.16-.21-5.93,0-1,0-1-.06-1.64l0-.57a1.9,1.9,0,0,1,1.9-2H51.89a1.9,1.9,0,0,1,1.89,2L50.5,55.84a8.51,8.51,0,0,0,5.44,8.07L85,74.38A12.78,12.78,0,0,1,93.57,86v9.47a1.9,1.9,0,0,1-1.9,1.9h-4c-7.5,0-15.91,0-24.46,0a67.27,67.27,0,0,1-19.62-2.93c-1.84-.55-3.51-1.15-5-1.75ZM49,19.69H10.77c.13,3.87.27,7.75.4,11.54.05,1.46.09,2.9.14,4.3.51,15.26.81,25.82.81,29.62V91.67H34.85V89.78a1.9,1.9,0,0,1,2.76-1.69c.3.16.92.45,1.83.83a55.76,55.76,0,0,0,5.3,1.89,63.71,63.71,0,0,0,18.52,2.76c8.54,0,17,0,24.47,0h2V86a9,9,0,0,0-6-8L54.69,67.49a12.28,12.28,0,0,1-8-11.9Zm.25-3.79.6-9.47H10.29c.08,2,.15,4,.23,6.18,0,1.09.07,2.19.11,3.29Z" transform="translate(-6.43 -2.64)"/></svg>